HIERARCHY
ROOT Hips
{
	OFFSET -0.001795 -0.223333 0.028219
	CHANNELS 6 Xposition Yposition Zposition Zrotation Yrotation Xrotation 
	JOINT LeftUpLeg
	{
		OFFSET 0.069520 -0.091406 -0.006815
		CHANNELS 3 Zrotation Yrotation Xrotation
		JOINT LeftLeg
		{
			OFFSET 0.034277 -0.375199 -0.004496
			CHANNELS 3 Zrotation Yrotation Xrotation
			JOINT LeftFoot
			{
				OFFSET -0.013596 -0.397961 -0.043693
				CHANNELS 3 Zrotation Yrotation Xrotation
				JOINT LeftToe
				{
					OFFSET 0.026358 -0.055791 0.119288
					CHANNELS 3 Zrotation Yrotation Xrotation
					End Site
					{
						OFFSET 0.000000 0.000000 0.000000
					}
				}
			}
		}
	}
	JOINT RightUpLeg
	{
		OFFSET -0.067670 -0.090522 -0.004320
		CHANNELS 3 Zrotation Yrotation Xrotation
		JOINT RightLeg
		{
			OFFSET -0.038290 -0.382569 -0.008850
			CHANNELS 3 Zrotation Yrotation Xrotation
			JOINT RightFoot
			{
				OFFSET 0.015774 -0.398415 -0.042312
				CHANNELS 3 Zrotation Yrotation Xrotation
				JOINT RightToe
				{
					OFFSET -0.025372 -0.048144 0.123348
					CHANNELS 3 Zrotation Yrotation Xrotation
					End Site
					{
						OFFSET 0.000000 0.000000 0.000000
					}
				}
			}
		}
	}
	JOINT Spine
	{
		OFFSET -0.002533 0.108963 -0.026696
		CHANNELS 3 Zrotation Yrotation Xrotation
		JOINT Spine1
		{
			OFFSET 0.005487 0.135180 0.001092
			CHANNELS 3 Zrotation Yrotation Xrotation
			JOINT Spine2
			{
				OFFSET 0.001457 0.052922 0.025425
				CHANNELS 3 Zrotation Yrotation Xrotation
				JOINT Neck
				{
					OFFSET -0.002778 0.213870 -0.042857
					CHANNELS 3 Zrotation Yrotation Xrotation
					JOINT Head
					{
						OFFSET 0.005152 0.064970 0.051349
						CHANNELS 3 Zrotation Yrotation Xrotation
						End Site
						{
							OFFSET 0.000000 0.000000 0.000000
						}
					}
				}
				JOINT LeftShoulder
				{
					OFFSET 0.078845 0.121749 -0.034090
					CHANNELS 3 Zrotation Yrotation Xrotation
					JOINT LeftArm
					{
						OFFSET 0.090977 0.030469 -0.008868
						CHANNELS 3 Zrotation Yrotation Xrotation
						JOINT LeftForeArm
						{
							OFFSET 0.259612 -0.012772 -0.027456
							CHANNELS 3 Zrotation Yrotation Xrotation
							JOINT LeftHand
							{
								OFFSET 0.249234 0.008986 -0.001171
								CHANNELS 3 Zrotation Yrotation Xrotation
								End Site
								{
									OFFSET 0.000000 0.000000 0.000000
								}
							}
						}
					}
				}
				JOINT RightShoulder
				{
					OFFSET -0.081759 0.118833 -0.038615
					CHANNELS 3 Zrotation Yrotation Xrotation
					JOINT RightArm
					{
						OFFSET -0.096012 0.032551 -0.009143
						CHANNELS 3 Zrotation Yrotation Xrotation
						JOINT RightForeArm
						{
							OFFSET -0.253742 -0.013329 -0.021401
							CHANNELS 3 Zrotation Yrotation Xrotation
							JOINT RightHand
							{
								OFFSET -0.255298 0.007772 -0.005559
								CHANNELS 3 Zrotation Yrotation Xrotation
								End Site
								{
									OFFSET 0.000000 0.000000 0.000000
								}
							}
						}
					}
				}
			}
		}
	}
}
MOTION
Frames: 13
Frame Time: 0.050000
-0.015855 0.890110 0.177488 -2.181352 -0.688086 2.143532 18.585513 1.268704 -21.028548 -11.007716 2.448805 18.357305 10.007155 20.376895 11.905330 0.000000 0.000000 0.000000 -8.267797 0.904955 -22.460792 15.146740 -3.924256 24.256564 -9.701176 -23.297610 4.147529 0.000000 0.000000 0.000000 -6.006369 0.696706 43.645626 6.086545 -1.083607 -21.221438 0.911039 1.927350 21.522421 -1.239341 3.222367 -48.360177 0.000000 0.000000 0.000000 -19.171857 -23.593504 11.219514 -16.285574 -52.172016 2.104016 57.749760 -36.227967 -18.280838 0.000000 0.000000 0.000000 6.231791 32.653307 13.193563 15.962813 51.859151 2.527380 -52.261833 32.716885 -13.677270 0.000000 0.000000 0.000000 
-0.016167 0.892814 0.178405 -2.189714 -0.754990 2.045607 18.326160 1.144977 -19.836135 -10.559336 2.212223 16.622106 9.967276 20.307398 12.224706 0.000000 0.000000 0.000000 -8.062456 0.913275 -21.605592 14.883957 -3.714191 23.081539 -9.584051 -23.031870 4.445270 0.000000 0.000000 0.000000 -5.943371 0.668644 42.952489 6.319224 -1.172695 -20.925108 0.998246 2.032712 21.430229 -1.285551 3.230018 -47.708349 0.000000 0.000000 0.000000 -18.970146 -23.512220 11.117277 -16.206462 -52.207180 2.080805 57.363780 -36.571058 -18.337737 0.000000 0.000000 0.000000 6.089064 32.642524 13.146512 16.745381 52.513585 2.941409 -52.456299 34.036750 -14.361861 0.000000 0.000000 0.000000 
-0.016581 0.895117 0.178817 -2.231540 -0.698343 1.911687 18.269144 1.059356 -18.791332 -10.388116 2.064574 15.063473 9.862678 20.151328 12.579921 0.000000 0.000000 0.000000 -7.939921 0.901682 -20.848707 14.817335 -3.602649 22.079599 -9.519651 -22.866913 4.846067 0.000000 0.000000 0.000000 -5.889820 0.623113 42.324577 6.564717 -1.257778 -20.714756 1.170517 2.196858 21.362395 -1.271963 3.233842 -47.216134 0.000000 0.000000 0.000000 -18.787108 -23.320728 10.927420 -16.108527 -52.445702 2.069589 57.111665 -37.149715 -18.585870 0.000000 0.000000 0.000000 6.172650 32.503698 13.128086 17.951711 52.910810 3.517638 -53.550982 35.902957 -15.612958 0.000000 0.000000 0.000000 
-0.017085 0.897284 0.178615 -2.245020 -0.360284 1.646102 18.079032 0.957532 -18.051300 -10.054884 1.901943 14.050391 9.593744 19.774299 12.951794 0.000000 0.000000 0.000000 -7.642372 0.898940 -20.082773 14.385029 -3.434920 21.334400 -9.577388 -22.938888 5.244974 0.000000 0.000000 0.000000 -5.881827 0.554550 42.069425 6.924231 -1.355056 -20.672399 1.360210 2.336250 21.358515 -1.595322 3.357250 -46.624186 0.000000 0.000000 0.000000 -18.187545 -23.119313 10.641833 -16.035341 -52.796914 2.075232 56.959782 -37.491055 -18.765262 0.000000 0.000000 0.000000 6.235309 32.461512 13.149230 18.638882 53.229416 3.887739 -54.694981 37.089980 -16.593847 0.000000 0.000000 0.000000 
-0.017642 0.898950 0.177836 -2.217918 0.039555 1.347382 17.908677 0.876382 -17.546098 -9.826240 1.791001 13.401410 9.299026 19.371457 13.295070 0.000000 0.000000 0.000000 -7.463660 0.881368 -19.510503 14.071404 -3.341165 20.915388 -9.675882 -23.084875 5.667199 0.000000 0.000000 0.000000 -5.852336 0.468560 41.922890 6.935254 -1.347115 -20.769426 1.531774 2.226594 21.525898 -2.068006 3.519165 -46.511570 0.000000 0.000000 0.000000 -17.720014 -23.174074 10.577567 -15.278115 -53.027736 1.789334 57.377978 -37.449231 -18.957137 0.000000 0.000000 0.000000 6.207265 32.547642 13.165786 19.267857 53.192661 4.153849 -55.840441 37.544419 -17.246004 0.000000 0.000000 0.000000 
-0.018165 0.900996 0.176783 -2.196641 0.638455 1.088974 17.604050 0.771500 -17.183916 -9.388530 1.630690 12.785714 8.892415 18.831366 13.713934 0.000000 0.000000 0.000000 -7.160355 0.869512 -18.817151 13.537883 -3.178204 20.228762 -9.853867 -23.374978 6.157450 0.000000 0.000000 0.000000 -5.852624 0.362395 41.975177 6.929003 -1.336149 -20.825561 1.734553 2.154517 21.507411 -2.673928 3.736754 -45.934041 0.000000 0.000000 0.000000 -17.732365 -23.291830 10.585373 -14.293656 -52.988324 1.399166 57.872584 -37.269771 -19.127754 0.000000 0.000000 0.000000 6.473722 32.695410 13.321105 19.245007 52.785464 4.098854 -57.257482 37.374621 -17.674531 0.000000 0.000000 0.000000 
-0.018633 0.902219 0.175662 -2.186950 1.025825 0.695293 17.350341 0.689697 -16.646697 -8.994123 1.500353 12.239915 8.602670 18.444197 13.906632 0.000000 0.000000 0.000000 -6.977774 0.852763 -18.280057 13.238636 -3.106707 20.007915 -9.964740 -23.537883 6.527638 0.000000 0.000000 0.000000 -5.881041 0.303502 42.099490 6.954624 -1.363320 -20.561881 1.857028 2.358708 21.404996 -2.828092 3.828950 -45.462428 0.000000 0.000000 0.000000 -17.953259 -23.474743 10.607495 -13.449400 -52.844714 1.066619 58.839859 -37.163948 -19.561703 0.000000 0.000000 0.000000 6.678858 32.819903 13.466979 18.547523 52.139424 3.753900 -58.298206 36.481686 -17.563248 0.000000 0.000000 0.000000 
-0.019063 0.903061 0.174655 -2.161196 1.658270 0.391218 17.032427 0.585325 -16.152519 -8.557235 1.349912 11.477312 8.234487 17.960216 13.937600 0.000000 0.000000 0.000000 -6.762206 0.833782 -17.754902 12.830799 -3.017411 19.711727 -10.194478 -23.935423 6.760325 0.000000 0.000000 0.000000 -5.733563 0.130794 42.372821 6.733010 -1.281589 -20.749642 2.055371 2.376405 21.692327 -3.194997 3.988447 -45.492124 0.000000 0.000000 0.000000 -18.091749 -23.800299 10.719487 -12.538627 -53.036229 0.707454 59.759372 -36.600837 -19.694578 0.000000 0.000000 0.000000 6.762138 32.930325 13.558626 18.063885 51.719737 3.512278 -58.773444 35.089099 -16.950414 0.000000 0.000000 0.000000 
-0.019379 0.903009 0.173782 -2.164674 2.174135 0.305090 16.867372 0.531926 -16.178132 -8.310246 1.272632 11.292425 7.982188 17.630700 13.841489 0.000000 0.000000 0.000000 -6.635942 0.824132 -17.586419 12.619018 -2.991529 19.594296 -10.416034 -24.342006 6.804483 0.000000 0.000000 0.000000 -5.641382 0.003852 42.517970 6.628232 -1.250852 -20.650222 2.009113 2.449814 21.539764 -3.273694 4.046802 -45.493540 0.000000 0.000000 0.000000 -18.753483 -23.703097 10.682164 -12.342364 -53.265314 0.655952 60.714587 -36.539948 -20.085926 0.000000 0.000000 0.000000 7.265513 33.005965 13.792245 18.027930 51.468905 3.482304 -58.508857 33.705534 -16.056468 0.000000 0.000000 0.000000 
-0.019602 0.902948 0.173025 -2.146667 2.779141 0.205574 16.814191 0.473046 -15.945158 -8.330665 1.231337 10.636433 7.693886 17.250856 13.720372 0.000000 0.000000 0.000000 -6.466143 0.813819 -17.310376 12.280579 -2.924353 19.363378 -10.673196 -24.823827 6.779756 0.000000 0.000000 0.000000 -5.393291 -0.203860 42.616998 6.457421 -1.187084 -20.764835 2.044595 2.408101 21.763265 -3.576565 4.178417 -45.141428 0.000000 0.000000 0.000000 -19.394700 -23.947059 10.846611 -11.873332 -53.621124 0.479296 61.496829 -36.466749 -20.395824 0.000000 0.000000 0.000000 7.789567 32.980732 13.973474 18.234623 51.360367 3.537865 -58.720969 32.844727 -15.615486 0.000000 0.000000 0.000000 
-0.019634 0.902924 0.172349 -2.174466 3.119886 0.224927 16.698889 0.442002 -16.111477 -8.129587 1.178899 10.620965 7.533448 17.041547 13.668057 0.000000 0.000000 0.000000 -6.303653 0.824354 -17.297356 12.026736 -2.872392 19.302467 -10.828523 -25.107980 6.837943 0.000000 0.000000 0.000000 -5.299851 -0.304208 42.789359 6.418741 -1.167927 -20.791239 1.993954 2.432127 21.752973 -3.621409 4.211478 -45.118215 0.000000 0.000000 0.000000 -19.717188 -23.873310 10.803780 -11.834497 -54.287668 0.496912 62.030793 -36.251548 -20.489028 0.000000 0.000000 0.000000 8.081290 32.961342 14.090617 18.870200 51.641504 3.839159 -58.945333 31.808724 -15.059610 0.000000 0.000000 0.000000 
-0.019522 0.903763 0.171711 -2.077368 3.339702 -0.021750 16.435790 0.393302 -15.823706 -7.930206 1.125952 10.397360 7.359412 16.819216 13.837574 0.000000 0.000000 0.000000 -6.077204 0.828759 -16.905451 11.431599 -2.699465 19.118861 -10.903108 -25.223098 6.972022 0.000000 0.000000 0.000000 -5.346808 -0.324795 42.861597 6.424550 -1.172855 -20.713438 1.915069 2.369464 21.903378 -3.848551 4.301781 -44.805449 0.000000 0.000000 0.000000 -20.312910 -24.057401 10.979828 -11.597210 -54.498183 0.412162 62.237248 -36.120175 -20.509759 0.000000 0.000000 0.000000 8.730381 33.050136 14.324871 19.299075 51.626653 3.985103 -59.033434 31.374311 -14.842443 0.000000 0.000000 0.000000 
-0.019284 0.904841 0.171145 -1.987855 3.463976 0.037730 16.329953 0.367020 -15.729823 -7.980552 1.119433 9.986645 7.251031 16.704088 14.179783 0.000000 0.000000 0.000000 -5.949271 0.840440 -16.847243 10.996893 -2.562990 18.889795 -10.946317 -25.260443 7.275483 0.000000 0.000000 0.000000 -5.349878 -0.340836 42.788368 6.457389 -1.192492 -20.548187 1.925993 2.175450 21.818913 -4.302296 4.442711 -44.817043 0.000000 0.000000 0.000000 -20.195340 -23.907355 10.919617 -11.604213 -55.198287 0.447046 61.870710 -35.777419 -20.117473 0.000000 0.000000 0.000000 8.807875 33.136337 14.371561 19.870345 51.826093 4.241102 -58.803411 31.366371 -14.765104 0.000000 0.000000 0.000000 
